{
    "asset" : {
        "generator" : "Khronos glTF Blender I/O v1.5.17",
        "version" : "2.0"
    },
    "scene" : 0,
    "scenes" : [
        {
            "name" : "Scene",
            "nodes" : [
                0
            ]
        }
    ],
    "nodes" : [
        {
            "mesh" : 0,
            "name" : "texturedMesh",
            "rotation" : [
                0.8069795966148376,
                -0.2595699727535248,
                -0.507695734500885,
                0.1537943035364151
            ]
        }
    ],
    "materials" : [
        {
            "doubleSided" : true,
            "name" : "TextureAtlas_1001.001",
            "pbrMetallicRoughness" : {
                "baseColorTexture" : {
                    "index" : 0
                },
                "metallicFactor" : 0
            }
        },
        {
            "doubleSided" : true,
            "name" : "TextureAtlas_1002.001",
            "pbrMetallicRoughness" : {
                "baseColorTexture" : {
                    "index" : 1
                },
                "metallicFactor" : 0
            }
        }
    ],
    "meshes" : [
        {
            "name" : "texturedMesh.001",
            "primitives" : [
                {
                    "attributes" : {
                        "POSITION" : 0,
                        "NORMAL" : 1,
                        "TEXCOORD_0" : 2
                    },
                    "indices" : 3,
                    "material" : 0
                },
                {
                    "attributes" : {
                        "POSITION" : 4,
                        "NORMAL" : 5,
                        "TEXCOORD_0" : 6
                    },
                    "indices" : 7,
                    "material" : 1
                }
            ]
        }
    ],
    "textures" : [
        {
            "sampler" : 0,
            "source" : 0
        },
        {
            "sampler" : 0,
            "source" : 1
        }
    ],
    "images" : [
        {
            "bufferView" : 4,
            "mimeType" : "image/png",
            "name" : "texture_1001_DOWNSCALE"
        },
        {
            "bufferView" : 9,
            "mimeType" : "image/png",
            "name" : "texture_1002"
        }
    ],
    "accessors" : [
        {
            "bufferView" : 0,
            "componentType" : 5126,
            "count" : 16010,
            "max" : [
                0.40169116854667664,
                0.26282963156700134,
                0.4339721202850342
            ],
            "min" : [
                -0.3357849419116974,
                -0.27091076970100403,
                -0.47333359718322754
            ],
            "type" : "VEC3"
        },
        {
            "bufferView" : 1,
            "componentType" : 5126,
            "count" : 16010,
            "type" : "VEC3"
        },
        {
            "bufferView" : 2,
            "componentType" : 5126,
            "count" : 16010,
            "type" : "VEC2"
        },
        {
            "bufferView" : 3,
            "componentType" : 5123,
            "count" : 59961,
            "type" : "SCALAR"
        },
        {
            "bufferView" : 5,
            "componentType" : 5126,
            "count" : 3901,
            "max" : [
                0.36413154006004333,
                0.26009586453437805,
                0.4330528974533081
            ],
            "min" : [
                -0.3315267264842987,
                -0.2669462561607361,
                -0.44199275970458984
            ],
            "type" : "VEC3"
        },
        {
            "bufferView" : 6,
            "componentType" : 5126,
            "count" : 3901,
            "type" : "VEC3"
        },
        {
            "bufferView" : 7,
            "componentType" : 5126,
            "count" : 3901,
            "type" : "VEC2"
        },
        {
            "bufferView" : 8,
            "componentType" : 5123,
            "count" : 14553,
            "type" : "SCALAR"
        }
    ],
    "bufferViews" : [
        {
            "buffer" : 0,
            "byteLength" : 192120,
            "byteOffset" : 0
        },
        {
            "buffer" : 0,
            "byteLength" : 192120,
            "byteOffset" : 192120
        },
        {
            "buffer" : 0,
            "byteLength" : 128080,
            "byteOffset" : 384240
        },
        {
            "buffer" : 0,
            "byteLength" : 119922,
            "byteOffset" : 512320
        },
        {
            "buffer" : 0,
            "byteLength" : 1319912,
            "byteOffset" : 632244
        },
        {
            "buffer" : 0,
            "byteLength" : 46812,
            "byteOffset" : 1952156
        },
        {
            "buffer" : 0,
            "byteLength" : 46812,
            "byteOffset" : 1998968
        },
        {
            "buffer" : 0,
            "byteLength" : 31208,
            "byteOffset" : 2045780
        },
        {
            "buffer" : 0,
            "byteLength" : 29106,
            "byteOffset" : 2076988
        },
        {
            "buffer" : 0,
            "byteLength" : 457120,
            "byteOffset" : 2106096
        }
    ],
    "samplers" : [
        {
            "magFilter" : 9729,
            "minFilter" : 9987
        }
    ],
    "buffers" : [
        {
            "byteLength" : 2563216,
            "uri" : "data:application/octet-stream;base64,"
        }
    ]
}
