{
    "asset" : {
        "generator" : "Khronos glTF Blender I/O v1.5.17",
        "version" : "2.0"
    },
    "scene" : 0,
    "scenes" : [
        {
            "name" : "Scene",
            "nodes" : [
                0
            ]
        }
    ],
    "nodes" : [
        {
            "mesh" : 0,
            "name" : "texturedMesh",
            "rotation" : [
                0.9609521627426147,
                -0.010846584104001522,
                0.0031207685824483633,
                -0.27648434042930603
            ],
            "translation" : [
                0,
                0.06477939337491989,
                0.011778071522712708
            ]
        }
    ],
    "materials" : [
        {
            "doubleSided" : true,
            "name" : "TextureAtlas_1001",
            "pbrMetallicRoughness" : {
                "baseColorTexture" : {
                    "index" : 0
                },
                "metallicFactor" : 0
            }
        }
    ],
    "meshes" : [
        {
            "name" : "texturedMesh",
            "primitives" : [
                {
                    "attributes" : {
                        "POSITION" : 0,
                        "NORMAL" : 1,
                        "TEXCOORD_0" : 2
                    },
                    "indices" : 3,
                    "material" : 0
                }
            ]
        }
    ],
    "textures" : [
        {
            "sampler" : 0,
            "source" : 0
        }
    ],
    "images" : [
        {
            "bufferView" : 4,
            "mimeType" : "image/png",
            "name" : "texture_1001ds"
        }
    ],
    "accessors" : [
        {
            "bufferView" : 0,
            "componentType" : 5126,
            "count" : 3681,
            "max" : [
                0.7176598310470581,
                0.3891860544681549,
                0.5136843919754028
            ],
            "min" : [
                -0.5825889110565186,
                -0.3205724060535431,
                -0.5905523300170898
            ],
            "type" : "VEC3"
        },
        {
            "bufferView" : 1,
            "componentType" : 5126,
            "count" : 3681,
            "type" : "VEC3"
        },
        {
            "bufferView" : 2,
            "componentType" : 5126,
            "count" : 3681,
            "type" : "VEC2"
        },
        {
            "bufferView" : 3,
            "componentType" : 5123,
            "count" : 17067,
            "type" : "SCALAR"
        }
    ],
    "bufferViews" : [
        {
            "buffer" : 0,
            "byteLength" : 44172,
            "byteOffset" : 0
        },
        {
            "buffer" : 0,
            "byteLength" : 44172,
            "byteOffset" : 44172
        },
        {
            "buffer" : 0,
            "byteLength" : 29448,
            "byteOffset" : 88344
        },
        {
            "buffer" : 0,
            "byteLength" : 34134,
            "byteOffset" : 117792
        },
        {
            "buffer" : 0,
            "byteLength" : 2637318,
            "byteOffset" : 151928
        }
    ],
    "samplers" : [
        {
            "magFilter" : 9729,
            "minFilter" : 9987
        }
    ],
    "buffers" : [
        {
            "byteLength" : 2789248,
            "uri" : "data:application/octet-stream;base64,"
        }
    ]
}
